name ./resultDataOpenSim/trcMotMarkerGrf/sub10/grf-14-08.mot
datacolumns 19
datarows 12
range 1.52000000 1.56400000
endheader

                time	     ground_force_vx	     ground_force_vy	     ground_force_vz	     ground_force_px	     ground_force_py	     ground_force_pz	   l_ground_force_vx	   l_ground_force_vy	   l_ground_force_vz	   l_ground_force_px	   l_ground_force_py	   l_ground_force_pz	     ground_torque_x	     ground_torque_y	     ground_torque_z	   l_ground_torque_x	   l_ground_torque_y	   l_ground_torque_z	
          1.52000000	         -2.13053043	        504.54260187	         -0.42088832	          0.88089684	          0.00000000	         -0.00476788	          0.00000000	          0.00000000	          0.00000000	          0.00000000	          0.00000000	          0.00000000	          0.00000000	          3.15864322	          0.00000000	          0.00000000	          0.00000000	          0.00000000	
          1.52400000	         -0.63751004	        509.69476310	         -0.12693268	          0.88199486	          0.00000000	         -0.00487872	          0.00000000	          0.00000000	          0.00000000	          0.00000000	          0.00000000	          0.00000000	          0.00000000	          3.24080089	          0.00000000	          0.00000000	          0.00000000	          0.00000000	
          1.52800000	          0.86045649	        515.06257640	          0.09326485	          0.88306631	          0.00000000	         -0.00499804	          0.00000000	          0.00000000	          0.00000000	          0.00000000	          0.00000000	          0.00000000	          0.00000000	          3.32464838	          0.00000000	          0.00000000	          0.00000000	          0.00000000	
          1.53200000	          2.35892121	        520.58214555	          0.25099123	          0.88412274	          0.00000000	         -0.00512302	          0.00000000	          0.00000000	          0.00000000	          0.00000000	          0.00000000	          0.00000000	          0.00000000	          3.40842963	          0.00000000	          0.00000000	          0.00000000	          0.00000000	
          1.53600000	          3.85947267	        526.17346471	          0.35047927	          0.88517481	          0.00000000	         -0.00524913	          0.00000000	          0.00000000	          0.00000000	          0.00000000	          0.00000000	          0.00000000	          0.00000000	          3.48789436	          0.00000000	          0.00000000	          0.00000000	          0.00000000	
          1.54000000	          5.36727222	        531.74177721	          0.39241388	          0.88623133	          0.00000000	         -0.00537314	          0.00000000	          0.00000000	          0.00000000	          0.00000000	          0.00000000	          0.00000000	          0.00000000	          3.55816471	          0.00000000	          0.00000000	          0.00000000	          0.00000000	
          1.54400000	          6.88395334	        537.20068930	          0.38297178	          0.88729323	          0.00000000	         -0.00549234	          0.00000000	          0.00000000	          0.00000000	          0.00000000	          0.00000000	          0.00000000	          0.00000000	          3.61619097	          0.00000000	          0.00000000	          0.00000000	          0.00000000	
          1.54800000	          8.40347523	        542.49795626	          0.33508863	          0.88836248	          0.00000000	         -0.00560243	          0.00000000	          0.00000000	          0.00000000	          0.00000000	          0.00000000	          0.00000000	          0.00000000	          3.66196332	          0.00000000	          0.00000000	          0.00000000	          0.00000000	
          1.55200000	          9.91773816	        547.62178128	          0.25804517	          0.88945150	          0.00000000	         -0.00569716	          0.00000000	          0.00000000	          0.00000000	          0.00000000	          0.00000000	          0.00000000	          0.00000000	          3.69771065	          0.00000000	          0.00000000	          0.00000000	          0.00000000	
          1.55600000	         11.42675714	        552.58135194	          0.14428727	          0.89057004	          0.00000000	         -0.00577095	          0.00000000	          0.00000000	          0.00000000	          0.00000000	          0.00000000	          0.00000000	          0.00000000	          3.72591513	          0.00000000	          0.00000000	          0.00000000	          0.00000000	
          1.56000000	         12.94415096	        557.38128756	         -0.03540256	          0.89171130	          0.00000000	         -0.00582316	          0.00000000	          0.00000000	          0.00000000	          0.00000000	          0.00000000	          0.00000000	          0.00000000	          3.74780438	          0.00000000	          0.00000000	          0.00000000	          0.00000000	
          1.56400000	         14.49308860	        562.01691387	         -0.32222329	          0.89286154	          0.00000000	         -0.00585886	          0.00000000	          0.00000000	          0.00000000	          0.00000000	          0.00000000	          0.00000000	          0.00000000	          3.76343694	          0.00000000	          0.00000000	          0.00000000	          0.00000000	
